<svg width="40" height="20" viewBox="0 0 16 14" fill="none" xmlns="http://www.w3.org/2000/svg">
<path d="M12.5 1C11.837 1 11.2011 1.26339 10.7322 1.73223C10.2634 2.20108 10 2.83696 10 3.5C10 3.63261 9.94732 3.75979 9.85355 3.85355C9.75979 3.94732 9.63261 4 9.5 4C9.36739 4 9.24021 3.94732 9.14645 3.85355C9.05268 3.75979 9 3.63261 9 3.5C9 2.80777 9.20527 2.13108 9.58986 1.55551C9.97444 0.979934 10.5211 0.53133 11.1606 0.266423C11.8001 0.00151649 12.5039 -0.0677952 13.1828 0.0672531C13.8618 0.202301 14.4854 0.535644 14.9749 1.02513C15.4644 1.51461 15.7977 2.13825 15.9327 2.81719C16.0678 3.49612 15.9985 4.19985 15.7336 4.83939C15.4687 5.47894 15.0201 6.02556 14.4445 6.41015C13.8689 6.79473 13.1922 7 12.5 7H0.5C0.367392 7 0.240215 6.94732 0.146447 6.85355C0.0526784 6.75979 0 6.63261 0 6.5C0 6.36739 0.0526784 6.24022 0.146447 6.14645C0.240215 6.05268 0.367392 6 0.5 6H12.5C13.163 6 13.7989 5.73661 14.2678 5.26777C14.7366 4.79893 15 4.16304 15 3.5C15 2.83696 14.7366 2.20108 14.2678 1.73223C13.7989 1.26339 13.163 1 12.5 1V1ZM5.5 2C5.23478 2 4.98043 2.10536 4.79289 2.29289C4.60536 2.48043 4.5 2.73478 4.5 3C4.5 3.13261 4.44732 3.25979 4.35355 3.35355C4.25979 3.44732 4.13261 3.5 4 3.5C3.86739 3.5 3.74021 3.44732 3.64645 3.35355C3.55268 3.25979 3.5 3.13261 3.5 3C3.5 2.60444 3.6173 2.21776 3.83706 1.88886C4.05682 1.55996 4.36918 1.30362 4.73463 1.15224C5.10009 1.00087 5.50222 0.961261 5.89018 1.03843C6.27814 1.1156 6.63451 1.30608 6.91421 1.58579C7.19392 1.86549 7.3844 2.22186 7.46157 2.60982C7.53874 2.99778 7.49913 3.39992 7.34776 3.76537C7.19638 4.13082 6.94004 4.44318 6.61114 4.66294C6.28224 4.8827 5.89556 5 5.5 5H0.5C0.367392 5 0.240215 4.94732 0.146447 4.85355C0.0526784 4.75979 0 4.63261 0 4.5C0 4.36739 0.0526784 4.24022 0.146447 4.14645C0.240215 4.05268 0.367392 4 0.5 4H5.5C5.76522 4 6.01957 3.89464 6.20711 3.70711C6.39464 3.51957 6.5 3.26522 6.5 3C6.5 2.73478 6.39464 2.48043 6.20711 2.29289C6.01957 2.10536 5.76522 2 5.5 2V2ZM0 8.5C0 8.36739 0.0526784 8.24022 0.146447 8.14645C0.240215 8.05268 0.367392 8 0.5 8H10.542C11.1353 8 11.7154 8.17595 12.2087 8.50559C12.7021 8.83524 13.0866 9.30377 13.3136 9.85195C13.5407 10.4001 13.6001 11.0033 13.4844 11.5853C13.3686 12.1672 13.0829 12.7018 12.6633 13.1213C12.2438 13.5409 11.7092 13.8266 11.1273 13.9424C10.5453 14.0581 9.94213 13.9987 9.39395 13.7716C8.84577 13.5446 8.37724 13.1601 8.04759 12.6667C7.71795 12.1734 7.542 11.5933 7.542 11C7.542 10.8674 7.59468 10.7402 7.68845 10.6464C7.78221 10.5527 7.90939 10.5 8.042 10.5C8.17461 10.5 8.30179 10.5527 8.39555 10.6464C8.48932 10.7402 8.542 10.8674 8.542 11C8.542 11.3956 8.6593 11.7822 8.87906 12.1111C9.09882 12.44 9.41118 12.6964 9.77663 12.8478C10.1421 12.9991 10.5442 13.0387 10.9322 12.9616C11.3201 12.8844 11.6765 12.6939 11.9562 12.4142C12.2359 12.1345 12.4264 11.7781 12.5036 11.3902C12.5807 11.0022 12.5411 10.6001 12.3898 10.2346C12.2384 9.86918 11.982 9.55683 11.6531 9.33706C11.3242 9.1173 10.9376 9 10.542 9H0.5C0.367392 9 0.240215 8.94732 0.146447 8.85356C0.0526784 8.75979 0 8.63261 0 8.5Z" fill="white"/>
</svg>
